<?xml version="1.0" encoding="UTF-8"?>
<svg version="1.1" xmlns="http://www.w3.org/2000/svg" width="642" height="642">
<path d="M0 0 C14.12786655 5.04930971 23.6000094 16.94035331 30 30 C40.36748931 55.79562643 39.25272037 82.93143897 28.63842773 108.44604492 C26.75376564 112.73873726 24.6917911 115.96231335 22 120 C27.94 120.33 33.88 120.66 40 121 C42.0229762 115.33566664 43.66485262 109.64237283 45.125 103.8125 C45.38071777 102.79736328 45.38071777 102.79736328 45.64160156 101.76171875 C52.07651226 75.66387019 48.82241722 46.54931623 35.25 23.25 C34.67765625 22.32703125 34.1053125 21.4040625 33.515625 20.453125 C32.21150151 18.34232719 31.06652685 16.23761516 30 14 C39.38803504 15.83954741 47.36981445 24.07771451 52.84375 31.5 C68.31802253 54.84714803 71.97176897 81.67033661 67 109 C66.12033001 112.7203604 65.10386972 116.33715955 64 120 C70.93 120.495 70.93 120.495 78 121 C84.50278944 87.20871915 83.1166869 58.41707054 66 28 C65.32223866 26.67227195 64.6492959 25.34187818 64 24 C72.25931002 25.16646292 78.84652426 35.71923584 83.625 42.0625 C99.84265838 64.32554207 104.64253334 90.01412927 102 117 C101.67 118.32 101.34 119.64 101 121 C105.29 120.67 109.58 120.34 114 120 C114.633305 93.45396523 112.74389031 71.31413538 99.453125 47.6796875 C98 45 98 45 97 42 C111.82889407 48.07914378 122.51308856 68.20123428 128.53125 82.15234375 C133.54872839 94.66694353 135.15044269 107.6106006 135 121 C139.95 121 144.9 121 150 121 C149.59027498 100.04256519 147.35578093 80.29537525 134.453125 62.9609375 C133 61 133 61 132 59 C137.48561216 59.34285076 140.96860809 62.59687696 145 66 C145.99580078 66.83337891 145.99580078 66.83337891 147.01171875 67.68359375 C160.25904098 79.78576436 166.37508985 98.5867838 168 116 C168 117.65 168 119.3 168 121 C172.62 121 177.24 121 182 121 C178.78778283 95.4154624 178.78778283 95.4154624 165.81640625 73.82421875 C164 72 164 72 164 70 C173.53343523 71.43837795 181.21350519 78.89031249 186.77734375 86.3984375 C193.48355796 96.40639831 200 108.69658703 200 121 C205.61 121 211.22 121 217 121 C217 229.24 217 337.48 217 449 C98.53 449 -19.94 449 -142 449 C-142 340.76 -142 232.52 -142 121 C-75.175 120.505 -75.175 120.505 -7 120 C9.64496831 103.35503169 17.74269958 81.18613899 18.3125 57.75 C18.04559738 40.50809073 13.98130218 16.98130218 1.25390625 4.25390625 C0.63322266 3.63322266 0.63322266 3.63322266 0 3 C0 2.01 0 1.02 0 0 Z M-17.3046875 131.56347656 C-35.43590386 146.92696692 -63.89685623 149.79736205 -86.5625 150.5625 C-88.36170898 150.62727539 -88.36170898 150.62727539 -90.19726562 150.69335938 C-93.13141793 150.79856802 -96.0656425 150.90070883 -99 151 C-77.62238642 162.21142258 -47.91067894 161.48048339 -25.3203125 154.93359375 C-7.89784519 149.15787428 7.60389716 138.26436852 18 123 C18 122.67 18 122.34 18 122 C2.71211326 120.58738188 -6.07824385 120.98106199 -17.3046875 131.56347656 Z M37.90332031 126.44946289 C36.50504472 128.98275849 35.19095338 131.54324945 33.94189453 134.15332031 C24.92221461 151.83731693 4.37894534 162.89724007 -13.75 168.8125 C-32.914362 174.52576425 -52.20138891 174.38684661 -72 174 C-69.27805745 175.45108912 -66.71249462 176.45458406 -63.7265625 177.21875 C-62.90929687 177.42798096 -62.09203125 177.63721191 -61.25 177.8527832 C-33.17501672 184.77491682 -4.09926769 186.611474 22 172 C25.87875378 169.55835574 29.45699874 166.90305029 33 164 C33.69222656 163.47019531 34.38445312 162.94039062 35.09765625 162.39453125 C47.59011135 152.33599385 56.31033479 137.17106695 61 122 C47.96884407 119.8259163 47.96884407 119.8259163 37.90332031 126.44946289 Z M80 122 C79.29037109 123.79630859 79.29037109 123.79630859 78.56640625 125.62890625 C71.94962468 142.05976066 64.46720408 155.37935341 52 168 C51.14535156 168.96292969 51.14535156 168.96292969 50.2734375 169.9453125 C30.2427659 192.03041195 -1.99766314 198.5156481 -30.25 200.125 C-31.68883703 200.21166129 -33.12763955 200.2988975 -34.56640625 200.38671875 C-38.04389947 200.59775328 -41.52179019 200.80108068 -45 201 C-41.53175936 203.31216043 -38.17727359 204.11117593 -34.1875 205.0625 C-33.48818359 205.23587891 -32.78886719 205.40925781 -32.06835938 205.58789062 C-3.72457172 212.50812316 24.98614448 207.13015186 49.72265625 192.125 C73.8933492 176.45294164 90.53696873 152.66344765 98 125 C98 124.01 98 123.02 98 122 C92.06 122 86.12 122 80 122 Z M117 122 C115.96775462 125.61285882 114.94438481 129.23033957 114.0625 132.8828125 C106.60133047 163.30280973 88.65953835 190.34199939 61.73046875 206.83203125 C41.81836461 218.61461891 20.71926965 223.11231693 -2.25 223.625 C-3.6888226 223.66329936 -5.12762521 223.70235739 -6.56640625 223.7421875 C-10.04408495 223.83684361 -13.52191852 223.92133063 -17 224 C-14.36140952 225.40903821 -11.9393771 226.37863122 -9.0234375 227.03515625 C-8.27521729 227.2043457 -7.52699707 227.37353516 -6.75610352 227.54785156 C-5.57745728 227.80260254 -5.57745728 227.80260254 -4.375 228.0625 C-3.56538818 228.2387793 -2.75577637 228.41505859 -1.92163086 228.59667969 C3.70803205 229.79186046 9.23863948 230.77113767 15 231 C15.81855469 231.03996094 16.63710938 231.07992187 17.48046875 231.12109375 C43.60538352 231.77711081 70.13903125 223.13198068 90 206 C90.85464844 205.28199219 91.70929688 204.56398438 92.58984375 203.82421875 C117.69853296 182.04272102 130.34175663 154.80831947 133 122 C127.72 122 122.44 122 117 122 Z M152 123 C151.76276539 124.35755071 151.58019078 125.72475026 151.421875 127.09375 C146.93779862 163.35850464 131.16465255 196.9752743 102 220 C73.75357961 241.0115503 42.45019957 246.18586158 8 247 C11.92726657 249.08615616 15.93897053 250.0765863 20.25 251.0625 C20.97574219 251.23587891 21.70148438 251.40925781 22.44921875 251.58789062 C51.27486746 258.29332228 81.88386206 253.75057063 107.2109375 238.484375 C113.33231929 234.59432557 118.69329086 229.91775455 124 225 C124.85980469 224.23300781 125.71960938 223.46601563 126.60546875 222.67578125 C152.82222268 198.12622948 163.34952538 163.00122387 165.9934082 128.2956543 C165.99996555 126.01199723 165.65716348 124.17812594 165 122 C163.02090602 121.97313447 161.04171029 121.95366625 159.0625 121.9375 C157.40927734 121.92009766 157.40927734 121.92009766 155.72265625 121.90234375 C153.08552366 121.68737429 153.08552366 121.68737429 152 123 Z M185 122 C184.96261719 123.15113281 184.92523438 124.30226563 184.88671875 125.48828125 C183.50287136 161.40731744 173.68650498 196.21693761 150 224 C149.32582031 224.79535156 148.65164063 225.59070313 147.95703125 226.41015625 C124.47173392 253.3039392 92.53753522 268.62037332 57.015625 271.21826172 C50.68087629 271.59329317 44.34355103 271.83683633 38 272 C40.6643766 273.77625107 41.93002657 274.37474328 44.9140625 275.03515625 C45.67589844 275.20466797 46.43773437 275.37417969 47.22265625 275.54882812 C48.01542969 275.71833984 48.80820312 275.88785156 49.625 276.0625 C50.39457031 276.23587891 51.16414062 276.40925781 51.95703125 276.58789062 C80.83728376 282.90091065 110.76752801 278.5682703 136 263 C143.60287954 257.99297542 150.38000835 252.23125294 157 246 C157.59167969 245.47277344 158.18335938 244.94554687 158.79296875 244.40234375 C185.31159755 219.77340346 198.30109837 179.93856465 199.93652344 144.70288086 C200.17097351 136.91175774 199.31825311 129.67688578 198 122 C193.71 122 189.42 122 185 122 Z M-49 200 C-45 201 -45 201 -45 201 Z " fill="#058999" transform="translate(286,104)"/>
<path d="M0 0 C1.43828907 0.50470916 2.87660317 1.00934698 4.31494141 1.51391602 C16.74860004 5.90973056 28.94236071 10.78113734 41 16.125 C42.53285645 16.79885742 42.53285645 16.79885742 44.09667969 17.48632812 C91.76947651 38.56025429 136.19663017 66.44522553 176 100.125 C176.52577637 100.56730957 177.05155273 101.00961914 177.59326172 101.46533203 C184.77321255 107.51300482 191.80775729 113.6878694 198.64990234 120.11645508 C200.99029232 122.30891546 203.33174144 124.38136617 205.87109375 126.34375 C206.92490234 127.22546875 206.92490234 127.22546875 208 128.125 C208 128.785 208 129.445 208 130.125 C208.52980469 130.32867187 209.05960938 130.53234375 209.60546875 130.7421875 C213.0402284 132.72571918 215.55284473 135.42637 218.3125 138.25 C219.18950562 139.13776123 219.18950562 139.13776123 220.08422852 140.04345703 C223.51903101 143.54288647 226.83243832 147.1067477 230.00390625 150.84765625 C232.28130248 153.44593806 234.64314966 155.95285085 237.0144043 158.46533203 C243.30928472 165.13769052 249.29904135 171.93256852 255 179.125 C255.95317182 180.29919717 256.90768211 181.47230865 257.86328125 182.64453125 C260.43836098 185.81043727 262.97586571 189.00371197 265.49365234 192.21533203 C266.49017819 193.47867484 267.49562474 194.73503666 268.51025391 195.98388672 C269.95020701 197.76158898 271.35274202 199.56364602 272.75 201.375 C273.18046631 201.89231689 273.61093262 202.40963379 274.05444336 202.94262695 C277.88872307 208.05420654 277.43794947 212.95696989 277 219.125 C276.9282959 220.23037109 276.8565918 221.33574219 276.78271484 222.47460938 C274.31761702 255.86090646 268.71256348 288.5717521 261 321.125 C260.8336908 321.82737793 260.66738159 322.52975586 260.49603271 323.25341797 C247.1702559 379.15491191 226.38288294 433.18253143 202 485.125 C201.52981445 486.12853516 201.05962891 487.13207031 200.57519531 488.16601562 C193.82110658 502.53388752 186.8387992 516.78132729 179.296875 530.75390625 C177.17319536 534.72061089 175.36987436 538.6148861 173.828125 542.83984375 C171.32030985 549.20328398 168.71336867 554.46693164 162.22021484 557.36621094 C154.18473304 559.77140564 145.90485772 560.5871863 137.59423828 561.48095703 C131.20362431 562.18567157 124.85391928 563.13857943 118.49609375 564.08984375 C92.71754598 567.91781438 66.90244426 571.42262978 40.94287109 573.76660156 C38.45785004 573.99248459 35.97362913 574.22753712 33.49072266 574.47558594 C-6.33881831 578.42979283 -47.2311093 577.2985413 -87 573.125 C-88.37242859 572.98288086 -88.37242859 572.98288086 -89.77258301 572.83789062 C-120.80641662 569.60550222 -151.61471078 565.06500664 -182.41015625 560.078125 C-183.97251511 559.82686356 -183.97251511 559.82686356 -185.56643677 559.57052612 C-190.08240717 558.82995612 -194.59142263 558.05480744 -199.0793457 557.15869141 C-199.78315872 557.01960358 -200.48697174 556.88051575 -201.21211243 556.73721313 C-204.52468958 555.60291181 -205.53618277 553.22817255 -207.125 550.25 C-207.47643066 549.61070557 -207.82786133 548.97141113 -208.18994141 548.31274414 C-209.00705602 546.81413207 -209.80911872 545.30725842 -210.59960938 543.79443359 C-212.20422462 540.73570571 -213.85848671 537.70636775 -215.515625 534.67578125 C-219.40820591 527.52565379 -223.21912414 520.3347284 -227 513.125 C-227.49258301 512.1880127 -227.98516602 511.25102539 -228.49267578 510.28564453 C-266.65052297 437.22883657 -295.5882631 356.05684967 -313.65039062 240.26171875 C-314.03357792 236.82373662 -314.55476056 233.41931435 -315.078125 230 C-317.78125813 210.1222275 -317.78125813 210.1222275 -311.94091797 201.33056641 C-309.65969318 198.37977577 -307.25891241 195.60393373 -304.68603516 192.90429688 C-302.41183159 190.50429751 -300.40972588 187.91635395 -298.375 185.3125 C-296.92270556 183.57825829 -295.46410771 181.84928016 -294 180.125 C-293.10618689 179.05778045 -292.21298885 177.99004557 -291.3203125 176.921875 C-285.68338949 170.19526468 -279.91257364 163.6115233 -274 157.125 C-273.20231201 156.24247559 -272.40462402 155.35995117 -271.58276367 154.45068359 C-265.33931771 147.57756276 -258.93488304 140.90233825 -252.35571289 134.3503418 C-250.79910611 132.79915273 -249.24799829 131.24260608 -247.69726562 129.68554688 C-242.30358948 124.28790927 -236.81980943 119.06524523 -231 114.125 C-229.83175117 113.1033689 -228.66506336 112.07994981 -227.5 111.0546875 C-188.2900437 76.76890147 -145.4566788 48.64178481 -99 25.125 C-98.23107422 24.73248047 -97.46214844 24.33996094 -96.66992188 23.93554688 C-76.44569138 13.68788049 -54.87249562 5.64262845 -33.4375 -1.6875 C-32.48786377 -2.01886963 -31.53822754 -2.35023926 -30.55981445 -2.69165039 C-19.03925098 -6.50673211 -11.08540123 -3.9536714 0 0 Z M-207 111.125 C-207.61182129 111.63772461 -208.22364258 112.15044922 -208.85400391 112.67871094 C-223.43972039 124.9057337 -237.03175974 138.06513022 -250.5 151.5 C-251.11450012 152.11182129 -251.72900024 152.72364258 -252.36212158 153.35400391 C-258.79558313 159.76619746 -265.14290112 166.17393719 -271 173.125 C-271.94863008 174.20868928 -272.89910688 175.2907652 -273.8515625 176.37109375 C-281.09661832 184.67954929 -287.96340267 193.2507396 -294.47802734 202.14599609 C-296 204.125 -296 204.125 -297.72900391 205.96728516 C-301.26320043 209.92126398 -302.39161133 212.62792061 -302.2890625 217.9765625 C-302.10406186 220.23764404 -301.88031707 222.49577549 -301.625 224.75 C-301.50922607 225.97783203 -301.39345215 227.20566406 -301.27416992 228.47070312 C-300.89051117 232.36107688 -300.45179615 236.24199529 -300 240.125 C-299.86770996 241.33124023 -299.73541992 242.53748047 -299.59912109 243.78027344 C-290.34971675 326.7425742 -262.24299868 406.66562052 -203.46020508 528.39404297 C-202 531.125 -202 531.125 -200.7644043 534.68798828 C-199.19635509 538.82724861 -197.49144151 542.29404437 -194 545.125 C-186.10004114 548.6260856 -177.04970632 549.11689196 -168.5625 550.125 C-166.04185852 550.46966704 -163.52191973 550.81950949 -161.00268555 551.17431641 C-154.5764112 552.0631877 -148.14303996 552.87545853 -141.70385742 553.66467285 C-137.09891651 554.23698951 -132.50026353 554.85152828 -127.90126038 555.4694519 C-115.82368562 557.08949139 -103.73178528 558.52446978 -91.61724854 559.83789062 C-89.19076722 560.10407304 -86.76595136 560.38169407 -84.34130859 560.6640625 C-36.81596343 566.13278771 12.58429543 564.73751451 60 559.125 C61.04955872 559.0014917 62.09911743 558.8779834 63.18048096 558.75073242 C78.75379659 556.90458601 94.28513075 554.80870139 109.80749512 552.57745361 C112.97967924 552.12787993 116.15376147 551.6957089 119.32910156 551.26904297 C124.28566431 550.60161598 129.23482366 549.89435877 134.18099976 549.15396118 C135.99618831 548.88794789 137.81331869 548.63481577 139.63223267 548.39559937 C149.0376288 547.42755258 149.0376288 547.42755258 157.23974609 543.27587891 C158.85217803 540.95939115 159.9195782 538.729477 161 536.125 C161.94363615 534.37246176 162.89714343 532.62521024 163.859375 530.8828125 C164.82825705 529.0079585 165.79160222 527.130235 166.75 525.25 C167.81063757 523.18851369 168.87184267 521.12731928 169.93359375 519.06640625 C170.45421387 518.05336426 170.97483398 517.04032227 171.51123047 515.99658203 C172.80895086 513.49350114 174.12987976 511.00644278 175.47265625 508.52734375 C213.05719639 439.03627797 240.9226238 361.04445316 262.84033203 226.14501953 C262.98471485 224.31837814 263.21957022 222.49944233 263.46484375 220.68359375 C264.30908705 211.81325658 259.71861271 206.29190023 254.359375 199.76953125 C253.68648437 198.95548828 253.68648437 198.95548828 253 198.125 C252.2471875 197.17625 251.494375 196.2275 250.71875 195.25 C248.51793818 192.50695918 246.26770887 189.81293538 244 187.125 C243.1259204 186.0758387 242.25223747 185.02634683 241.37890625 183.9765625 C235.55492826 177.00403316 229.53527391 170.24692108 223.35302734 163.59130859 C222.03298795 162.16074984 220.7291467 160.71529778 219.42578125 159.26953125 C214.03534826 153.29896197 208.48982516 147.51154206 202.8125 141.8125 C202.15934814 141.15475586 201.50619629 140.49701172 200.83325195 139.81933594 C196.97143455 135.96967638 192.99577257 132.31121232 188.8684082 128.74829102 C186.25100077 126.47426226 183.72466465 124.11328903 181.1875 121.75 C175.64340173 116.63499794 169.89094098 111.83775278 164 107.125 C162.88094186 106.21423981 161.76248112 105.30274524 160.64453125 104.390625 C146.0104766 92.50033097 130.84702284 81.34443943 115 71.125 C114.30003906 70.66947754 113.60007812 70.21395508 112.87890625 69.74462891 C100.7377057 61.85764955 88.30247973 54.57371044 75.62890625 47.57666016 C74.01436566 46.68512428 72.40189032 45.78982039 70.79296875 44.88818359 C-27.238696 -10.00478985 -84.24370121 21.8340384 -207 111.125 Z " fill="#2497A4" transform="translate(343,36.875)"/>
<path d="M0 0 C1.73564209 0.59905151 1.73564209 0.59905151 3.50634766 1.21020508 C28.35221252 9.94345219 52.30771779 20.46022046 75.8125 32.3125 C76.85792969 32.83730957 77.90335937 33.36211914 78.98046875 33.90283203 C128.32828948 58.78999322 173.78192414 91.9837239 214.09570312 129.70898438 C215.9285367 131.42088013 217.76844584 133.12493978 219.609375 134.828125 C237.89228122 151.76889292 237.89228122 151.76889292 245.77734375 160.99609375 C247.96040293 163.4808425 250.21108444 165.89072682 252.4753418 168.30126953 C258.54280033 174.76411215 264.27390638 181.38697684 269.8125 188.3125 C271.39200642 190.23295944 272.97698241 192.14883658 274.56176758 194.06494141 C276.25215579 196.1276306 277.91294167 198.2115103 279.5703125 200.30078125 C281.58308345 202.83384809 283.65440042 205.24617294 285.8671875 207.60546875 C292.66468727 215.22474708 293.91312474 221.96017124 293.58935547 232.06225586 C293.39090934 235.48635829 293.11466147 238.89599941 292.8125 242.3125 C292.65225342 244.23400879 292.65225342 244.23400879 292.48876953 246.19433594 C285.67342041 325.04794911 261.61692242 402.41394784 182.20410156 573.91308594 C180.75839647 576.2673293 180.75839647 576.2673293 179.83496094 578.79785156 C178.22436811 582.28818138 176.64765754 584.59723453 172.95516968 586.03640747 C166.81561449 587.76941496 160.49313821 588.55808797 154.1875 589.4375 C152.0899006 589.7579306 149.99273775 590.08123054 147.89599609 590.40722656 C142.33803998 591.25850308 136.77372282 592.05560738 131.20532227 592.83532715 C127.85882139 593.30598527 124.51421754 593.78835471 121.16992188 594.27441406 C93.24422333 598.32012321 65.26548399 601.77144055 37.14234924 604.11669922 C35.42661603 604.26088962 33.71164863 604.41426484 31.99717712 604.57275391 C22.90930354 605.36039932 13.8597137 605.49349448 4.74609375 605.515625 C3.94240923 605.51845238 3.13872471 605.52127975 2.31068611 605.52419281 C-1.96483547 605.53910151 -6.2403242 605.54837648 -10.51586914 605.55273438 C-13.9642221 605.55706617 -17.41231737 605.57076093 -20.8605957 605.59375 C-44.80444345 605.74991791 -68.36802331 604.76252255 -92.1875 602.3125 C-93.31880341 602.19890137 -94.45010681 602.08530273 -95.61569214 601.96826172 C-102.37835966 601.28242068 -109.12777054 600.51055626 -115.875 599.6875 C-116.88072052 599.56677124 -117.88644104 599.44604248 -118.92263794 599.32165527 C-144.82755702 596.19223222 -170.61816578 592.1374904 -196.34475708 587.78970337 C-198.31941506 587.45822301 -200.29644134 587.14067027 -202.27511597 586.83407593 C-203.75602219 586.59257309 -203.75602219 586.59257309 -205.2668457 586.34619141 C-206.1522554 586.20710358 -207.0376651 586.06801575 -207.9499054 585.92471313 C-210.1875 585.3125 -210.1875 585.3125 -212.703125 582.8203125 C-213.27546875 581.70398438 -213.8478125 580.58765625 -214.4375 579.4375 C-214.78135742 578.79530518 -215.12521484 578.15311035 -215.47949219 577.49145508 C-216.27840698 575.99085063 -217.06000594 574.48095418 -217.828125 572.96435547 C-219.37468276 569.94734571 -220.9952848 566.97680791 -222.625 564.00390625 C-237.53037161 536.71522252 -250.83483743 508.8369867 -263.1875 480.3125 C-263.48867737 479.61819885 -263.78985474 478.92389771 -264.10015869 478.20855713 C-272.49878367 458.82876035 -280.23520075 439.26425074 -287.1875 419.3125 C-287.42919922 418.61898438 -287.67089844 417.92546875 -287.91992188 417.2109375 C-308.05939338 359.26394638 -322.76680306 299.97045162 -327.95825195 238.72607422 C-328.16669253 236.53156564 -328.46115447 234.36842965 -328.77734375 232.1875 C-329.84446622 220.29328097 -325.54263302 213.97109819 -318.1171875 204.94921875 C-317.1286377 203.78398682 -317.1286377 203.78398682 -316.12011719 202.59521484 C-314.30882523 200.45580355 -312.55600185 198.28295159 -310.8203125 196.08203125 C-295.50033967 176.7295063 -278.72710229 158.77588091 -261.3125 141.3125 C-260.77234253 140.7696637 -260.23218506 140.22682739 -259.67565918 139.6675415 C-253.69204993 133.66142381 -247.63597007 127.82321458 -241.1875 122.3125 C-239.41179779 120.69282183 -237.64041693 119.06838282 -235.875 117.4375 C-230.47258543 112.5167822 -224.88581141 107.88457447 -219.1875 103.3125 C-218.06729484 102.40024711 -216.94752295 101.48746197 -215.828125 100.57421875 C-162.80584642 57.48999566 -102.55558342 24.06227763 -38.24133301 1.16607666 C-36.43716899 0.52218753 -34.63791101 -0.1353975 -32.83886719 -0.79345703 C-20.72447645 -4.9906936 -11.97455498 -4.23780095 0 0 Z M-26.9296875 6.3671875 C-27.56603119 6.58391113 -28.20237488 6.80063477 -28.85800171 7.02392578 C-30.93011103 7.73425203 -32.99651416 8.45957033 -35.0625 9.1875 C-36.13244202 9.56047211 -36.13244202 9.56047211 -37.22399902 9.940979 C-50.43688768 14.55231479 -63.3992601 19.62019866 -76.1875 25.3125 C-77.28481445 25.79944336 -78.38212891 26.28638672 -79.51269531 26.78808594 C-124.94804737 47.09116826 -167.42984077 73.08321874 -206.1875 104.3125 C-207.58162109 105.43205078 -207.58162109 105.43205078 -209.00390625 106.57421875 C-220.50599593 115.89978491 -231.65544005 125.58808574 -242.46630859 135.70458984 C-244.31259783 137.42936444 -246.16560619 139.14671835 -248.01953125 140.86328125 C-261.05417903 152.93466287 -261.05417903 152.93466287 -273.1171875 165.9609375 C-275.31432995 168.45655968 -277.57639791 170.88012088 -279.85253906 173.3034668 C-285.04334552 178.83296522 -290.0717341 184.41779263 -294.8125 190.34375 C-296.62692349 192.61177937 -298.45945279 194.85762091 -300.3125 197.09375 C-303.65100208 201.13002383 -306.92973349 205.2109219 -310.1875 209.3125 C-310.90993896 210.20751221 -310.90993896 210.20751221 -311.64697266 211.12060547 C-312.96190779 212.76766581 -314.23560839 214.43897292 -315.5 216.125 C-316.21800781 217.05957031 -316.93601562 217.99414062 -317.67578125 218.95703125 C-321.87555258 228.27900431 -318.62546207 240.85815226 -317.5625 250.8125 C-317.47480347 251.64029968 -317.38710693 252.46809937 -317.29675293 253.32098389 C-311.45334978 307.76189317 -297.75065596 360.65668888 -279.87835693 412.30767822 C-278.84048072 415.31952731 -277.82294253 418.3382561 -276.80078125 421.35546875 C-266.65254338 450.90430516 -254.29178339 479.81258404 -240.78662109 507.97460938 C-239.40160619 510.86559011 -238.02894338 513.76206206 -236.66148376 516.66137695 C-230.46483549 529.78609486 -224.0230144 542.75793883 -217.1875 555.5625 C-216.57664551 556.71041016 -215.96579102 557.85832031 -215.33642578 559.04101562 C-214.18222001 561.17977512 -213.00849136 563.30815145 -211.8125 565.42382812 C-210.7827523 567.25435319 -209.79722086 569.11106224 -208.875 570.99804688 C-206.97666721 574.50374776 -205.458853 576.74667385 -201.75683594 578.39428711 C-198.97125886 579.09297895 -196.21067349 579.60151949 -193.36743164 580.00091553 C-190.92091063 580.35060446 -188.48875564 580.76169309 -186.05273438 581.17822266 C-179.85702278 582.2230418 -173.64904285 583.17950427 -167.4375 584.125 C-166.30511902 584.29824799 -165.17273804 584.47149597 -164.00604248 584.6499939 C-140.34278283 588.25673167 -116.63953493 591.40740102 -92.84576416 594.01824951 C-90.39407812 594.28963331 -87.94380095 594.57108351 -85.49365234 594.85595703 C-37.38073639 600.36333904 13.07250585 599.30949845 61.08398438 593.63214111 C63.88562223 593.30393385 66.68856128 592.98993685 69.4921875 592.67919922 C92.65974654 590.09742912 115.73005888 586.86247984 138.76300049 583.27767944 C141.28271838 582.88628955 143.80318707 582.49970102 146.32440186 582.11807251 C149.83900228 581.58277381 153.34934557 581.02533745 156.859375 580.4609375 C157.91119965 580.30375748 158.96302429 580.14657745 160.04672241 579.9846344 C165.53211039 579.108837 165.53211039 579.108837 170.32128906 576.48022461 C171.89516692 574.19232979 173.31682711 571.93164357 174.625 569.48046875 C175.13675781 568.52938232 175.64851563 567.5782959 176.17578125 566.59838867 C176.71589844 565.57592041 177.25601562 564.55345215 177.8125 563.5 C178.66908203 561.89572144 178.66908203 561.89572144 179.54296875 560.2590332 C181.30715442 556.94753402 183.06021919 553.6303106 184.8125 550.3125 C185.83322556 548.39577594 186.85405381 546.47910655 187.875 544.5625 C207.86313672 506.85241013 225.58698437 467.56782523 239.8125 427.3125 C240.10620483 426.48403564 240.39990967 425.65557129 240.70251465 424.80200195 C250.10403587 398.24453396 258.86840831 371.62313514 265.8125 344.3125 C266.13508789 343.05373047 266.45767578 341.79496094 266.79003906 340.49804688 C274.82165746 308.75682298 280.32740906 276.48158952 283.42822266 243.89697266 C283.75912024 240.81041716 284.20004535 237.78742781 284.73046875 234.73046875 C285.90983171 227.15208542 285.33164842 222.13774822 280.78198242 215.75268555 C278.49168789 212.83542979 276.07450867 210.05916846 273.5859375 207.31005859 C271.40127371 204.84930431 269.40974819 202.27311054 267.41796875 199.65576172 C262.53630993 193.24242969 257.26562786 187.24617169 251.8125 181.3125 C250.68310071 180.02467819 249.557915 178.73314578 248.4375 177.4375 C239.79567784 167.54524921 230.76066861 158.09792736 221.45922852 148.82885742 C219.61291754 146.98795292 217.77207727 145.14169728 215.93164062 143.29492188 C210.06096509 137.42059548 204.16719306 131.66773971 197.8125 126.3125 C196.64392764 125.29123898 195.47725304 124.26780233 194.3125 123.2421875 C179.3571208 110.16365325 163.92432013 97.93774073 147.8125 86.3125 C146.72751221 85.52528564 146.72751221 85.52528564 145.62060547 84.72216797 C134.64343309 76.7724851 123.37199563 69.38648927 111.8125 62.3125 C110.97122559 61.79574707 110.12995117 61.27899414 109.26318359 60.74658203 C94.16348091 51.51630282 78.62517016 43.25061688 62.8125 35.3125 C61.90177734 34.85246582 60.99105469 34.39243164 60.05273438 33.91845703 C39.82406123 23.76181715 18.64517169 15.58230093 -2.6875 8.0625 C-3.76088623 7.67956787 -4.83427246 7.29663574 -5.94018555 6.90209961 C-6.93961182 6.55800049 -7.93903809 6.21390137 -8.96875 5.859375 C-9.83564453 5.55870117 -10.70253906 5.25802734 -11.59570312 4.94824219 C-17.21640799 3.56953877 -21.52899693 4.51227566 -26.9296875 6.3671875 Z " fill="#379FAC" transform="translate(341.1875,21.6875)"/>
<path d="M0 0 C14.12786655 5.04930971 23.6000094 16.94035331 30 30 C40.36748931 55.79562643 39.25272037 82.93143897 28.63842773 108.44604492 C26.75376564 112.73873726 24.6917911 115.96231335 22 120 C27.94 120.33 33.88 120.66 40 121 C42.0229762 115.33566664 43.66485262 109.64237283 45.125 103.8125 C45.38071777 102.79736328 45.38071777 102.79736328 45.64160156 101.76171875 C52.07651226 75.66387019 48.82241722 46.54931623 35.25 23.25 C34.67765625 22.32703125 34.1053125 21.4040625 33.515625 20.453125 C32.21150151 18.34232719 31.06652685 16.23761516 30 14 C39.38803504 15.83954741 47.36981445 24.07771451 52.84375 31.5 C68.31802253 54.84714803 71.97176897 81.67033661 67 109 C66.12033001 112.7203604 65.10386972 116.33715955 64 120 C70.93 120.495 70.93 120.495 78 121 C84.50278944 87.20871915 83.1166869 58.41707054 66 28 C65.32223866 26.67227195 64.6492959 25.34187818 64 24 C72.25931002 25.16646292 78.84652426 35.71923584 83.625 42.0625 C99.84265838 64.32554207 104.64253334 90.01412927 102 117 C101.67 118.32 101.34 119.64 101 121 C105.29 120.67 109.58 120.34 114 120 C114.633305 93.45396523 112.74389031 71.31413538 99.453125 47.6796875 C98 45 98 45 97 42 C111.82889407 48.07914378 122.51308856 68.20123428 128.53125 82.15234375 C133.54872839 94.66694353 135.15044269 107.6106006 135 121 C139.95 121 144.9 121 150 121 C150 114.73 150 108.46 150 102 C150.33 102 150.66 102 151 102 C151 108.6 151 115.2 151 122 C145.39 122 139.78 122 134 122 C134.0825 123.299375 134.165 124.59875 134.25 125.9375 C134.29558567 133.83521767 131.97239123 141.4098159 130 149 C128.96014445 145.78523532 129.08960347 143.70281297 129.875 140.4375 C130.92155247 135.71045427 131.41802908 131.07566384 131.75390625 126.25 C132 124 132 124 133 122 C125.08 122.495 125.08 122.495 117 123 C116.58041016 124.99546875 116.58041016 124.99546875 116.15234375 127.03125 C112.732287 142.66371696 107.8027445 157.45521977 99 171 C98.34 171.33 97.68 171.66 97 172 C98.42245523 168.26055585 100.08366244 164.67736154 101.81738281 161.07617188 C107.96206346 148.28751981 111.9514532 135.83197034 115 122 C110.05 122 105.1 122 100 122 C99.34 125.63 98.68 129.26 98 133 C97.34 133 96.68 133 96 133 C95.87044922 133.90878906 95.87044922 133.90878906 95.73828125 134.8359375 C94.60563053 141.59027664 92.32547318 147.0344565 89 153 C88.34 153 87.68 153 87 153 C88.4446309 148.49330457 90.13763527 144.12343461 91.9375 139.75 C94.31279714 133.90994571 96.31543899 128.08313696 98 122 C92.06 122 86.12 122 80 122 C79.67 123.32 79.34 124.64 79 126 C74.84733599 139.71931522 66.70320029 156.39169155 55 165 C56.4048238 161.81780244 58.29812628 159.15988311 60.37646484 156.38208008 C68.2964899 145.76747666 73.75382749 134.56867063 78 122 C72.72 122 67.44 122 62 122 C61.38125 124.35125 61.38125 124.35125 60.75 126.75 C59.55092877 130.80045113 58.46266419 133.3731513 55 136 C56.41874285 131.52550331 58.13410689 127.2992222 60 123 C50.95760475 121.82098448 50.95760475 121.82098448 42 123 C38.06851514 126.76489652 36.25287013 131.10740325 34 136 C32.13308291 138.51627955 30.13634466 140.7034295 28 143 C28 139.04597959 29.42518942 137.79745595 31.8125 134.6875 C34.68932676 130.93033281 36.99133471 127.28979937 39 123 C35.93654856 122.89177208 32.8769399 122.81258521 29.8125 122.75 C28.94818359 122.71648437 28.08386719 122.68296875 27.19335938 122.6484375 C22.83379843 122.58162431 20.63670591 122.58777886 16.88671875 125.015625 C16.26410156 125.67046875 15.64148438 126.3253125 15 127 C15.99 125.02 15.99 125.02 17 123 C-60.715 122.505 -60.715 122.505 -140 122 C-140 229.58 -140 337.16 -140 448 C-22.85 448 94.3 448 215 448 C215 340.42 215 232.84 215 122 C210.05 122 205.1 122 200 122 C200.33 123.32 200.66 124.64 201 126 C202.15217324 145.2430388 200.89751776 164.34684538 196 183 C195.34 183 194.68 183 194 183 C193.67 184.32 193.34 185.64 193 187 C191.41621013 183.83242026 192.8481875 181.45750046 193.8125 178.125 C198.92003655 159.65204956 199.73024698 141.03271681 198 122 C193.71 122 189.42 122 185 122 C185.03480469 123.15113281 185.06960938 124.30226563 185.10546875 125.48828125 C185.9752948 166.8797006 170.07215866 204.00373908 142 234 C139.69747707 236.36589512 137.36841587 238.70012349 135 241 C134.34 240.67 133.68 240.34 133 240 C133.89460938 239.14019531 134.78921875 238.28039062 135.7109375 237.39453125 C168.10963038 205.89068082 181.71276974 166.60918674 183 122 C177.72 122 172.44 122 167 122 C167.061875 125.465 167.061875 125.465 167.125 129 C167.18611427 141.85525452 165.70993058 153.92794493 161 166 C160.05417584 162.97741985 160.00175255 161.00532342 160.7421875 157.9375 C160.92112549 157.15068848 161.10006348 156.36387695 161.28442383 155.55322266 C161.57675903 154.28937744 161.57675903 154.28937744 161.875 153 C165.07275093 138.11894517 165.81319588 123.13541399 164 108 C163.88785156 107.04996094 163.77570313 106.09992188 163.66015625 105.12109375 C162.73441346 98.92302538 160.77468265 93.53610483 158.21875 87.82421875 C156.96805404 84.92597138 155.95905494 82.00592682 155 79 C164.18710179 87.22844769 166.74982418 104.23404277 167.75 116 C167.8325 117.65 167.915 119.3 168 121 C172.62 121 177.24 121 182 121 C178.78778283 95.4154624 178.78778283 95.4154624 165.81640625 73.82421875 C164 72 164 72 164 70 C173.53343523 71.43837795 181.21350519 78.89031249 186.77734375 86.3984375 C193.48355796 96.40639831 200 108.69658703 200 121 C205.61 121 211.22 121 217 121 C217 229.24 217 337.48 217 449 C98.53 449 -19.94 449 -142 449 C-142 340.76 -142 232.52 -142 121 C-75.175 120.505 -75.175 120.505 -7 120 C9.64496831 103.35503169 17.74269958 81.18613899 18.3125 57.75 C18.04559738 40.50809073 13.98130218 16.98130218 1.25390625 4.25390625 C0.63322266 3.63322266 0.63322266 3.63322266 0 3 C0 2.01 0 1.02 0 0 Z " fill="#CBE2E5" transform="translate(286,104)"/>
<path d="M0 0 C8.32414786 5.68928654 13.07790336 11.9006121 15.8125 21.75 C17.17869163 31.12159523 15.38130452 39.75367367 9.859375 47.484375 C2.41427908 56.28312472 -5.73960714 60.89441047 -17.21484375 61.93359375 C-27.57332564 62.28229512 -35.37056196 58.53777361 -43.875 53 C-49.7619398 47.27216668 -53.73558594 40.47933319 -54.5234375 32.234375 C-54.64189132 20.91018946 -53.02661133 12.84981257 -45.09765625 4.5 C-32.50136941 -7.04015645 -14.68403319 -8.55627319 0 0 Z " fill="#C12736" transform="translate(238.1875,146.25)"/>
<path d="M0 0 C9.53343523 1.43837795 17.21350519 8.89031249 22.77734375 16.3984375 C29.48355796 26.40639831 36 38.69658703 36 51 C41.61 51 47.22 51 53 51 C53 159.24 53 267.48 53 379 C-65.14 379 -183.28 379 -305 379 C-305 271.09 -305 163.18 -305 52 C-304.67 52 -304.34 52 -304 52 C-304 159.58 -304 267.16 -304 378 C-186.85 378 -69.7 378 51 378 C51 270.42 51 162.84 51 52 C46.05 52 41.1 52 36 52 C36.33 53.32 36.66 54.64 37 56 C38.15217324 75.2430388 36.89751776 94.34684538 32 113 C31.34 113 30.68 113 30 113 C29.67 114.32 29.34 115.64 29 117 C27.41621013 113.83242026 28.8481875 111.45750046 29.8125 108.125 C34.92003655 89.65204956 35.73024698 71.03271681 34 52 C29.71 52 25.42 52 21 52 C21.03480469 53.15113281 21.06960938 54.30226562 21.10546875 55.48828125 C21.9752948 96.8797006 6.07215866 134.00373908 -22 164 C-24.30252293 166.36589512 -26.63158413 168.70012349 -29 171 C-29.66 170.67 -30.32 170.34 -31 170 C-30.10539062 169.14019531 -29.21078125 168.28039062 -28.2890625 167.39453125 C4.10963038 135.89068082 17.71276974 96.60918674 19 52 C13.72 52 8.44 52 3 52 C3.061875 55.465 3.061875 55.465 3.125 59 C3.18611427 71.85525452 1.70993058 83.92794493 -3 96 C-3.94582416 92.97741985 -3.99824745 91.00532342 -3.2578125 87.9375 C-3.07887451 87.15068848 -2.89993652 86.36387695 -2.71557617 85.55322266 C-2.42324097 84.28937744 -2.42324097 84.28937744 -2.125 83 C1.07275093 68.11894517 1.81319588 53.13541399 0 38 C-0.11214844 37.04996094 -0.22429687 36.09992188 -0.33984375 35.12109375 C-1.26558654 28.92302538 -3.22531735 23.53610483 -5.78125 17.82421875 C-7.03194596 14.92597138 -8.04094506 12.00592682 -9 9 C0.18710179 17.22844769 2.74982418 34.23404277 3.75 46 C3.8325 47.65 3.915 49.3 4 51 C8.62 51 13.24 51 18 51 C14.78778283 25.4154624 14.78778283 25.4154624 1.81640625 3.82421875 C0 2 0 2 0 0 Z " fill="#90C5CC" transform="translate(450,174)"/>
<path d="M0 0 C4.02408469 1.41682837 7.13416919 3.34785768 10.5625 5.875 C11.49191406 6.55304688 12.42132813 7.23109375 13.37890625 7.9296875 C17.69442072 11.3383651 20.14075493 13.93061451 22.15625 19.08984375 C23.07051916 21.15964755 24.1882992 22.92727318 25.4375 24.8125 C37.22628789 43.32762332 37.7509276 68.49048057 33.71166992 89.48925781 C31.06988918 101.07659406 25.88646193 110.71831316 20 121 C12.08 121 4.16 121 -4 121 C-3.01 119.35 -2.02 117.7 -1 116 C-0.52304687 115.0409375 -0.04609375 114.081875 0.4453125 113.09375 C2.1053474 109.79036397 3.9720503 106.66911468 5.875 103.5 C19.20319343 80.49412681 20.57596412 55.16917137 14.19140625 29.78515625 C11.68132414 21.47399548 7.49877368 10.49877368 1.25390625 4.25390625 C0.84011719 3.84011719 0.42632812 3.42632812 0 3 C0 2.01 0 1.02 0 0 Z " fill="#098B9A" transform="translate(286,104)"/>
<path d="M0 0 C9.46088862 1.85382277 17.43608396 10.17192937 22.94921875 17.640625 C26.66800683 23.22270522 29.29557629 28.5275049 31 35 C31.26554687 35.9796875 31.53109375 36.959375 31.8046875 37.96875 C32.33105199 39.91379213 32.84756515 41.8615425 33.3515625 43.8125 C33.79810044 45.95709544 33.79810044 45.95709544 35 47 C37.15381075 55.28280262 37.38453102 63.61323894 37.375 72.125 C37.37584595 74.03128174 37.37584595 74.03128174 37.37670898 75.97607422 C37.24830923 87.00161401 35.46894119 96.59317642 32 107 C25.4 107 18.8 107 12 107 C12.97907477 102.10462614 14.4303578 97.64190987 16.0625 92.9375 C23.07018424 67.83580984 19.28578824 35.37156786 7.125 12.46875 C5.94794041 10.44813105 4.74800992 8.44048446 3.515625 6.453125 C2.21150151 4.34232719 1.06652685 2.23761516 0 0 Z " fill="#118E9D" transform="translate(316,118)"/>
<path d="M0 0 C8.26154935 1.16677918 14.84361544 11.71983 19.625 18.0625 C35.12995199 39.21825464 39.58278898 64.04629365 36.546875 89.8515625 C36.11294113 92.25059688 35.57438419 94.63066521 35 97 C28.73 97 22.46 97 16 97 C15.82921763 91.36418179 16.06411256 86.18759858 17 80.625 C21.12382241 53.24163249 15.45810292 27.91561336 2 4 C1.32223866 2.67227195 0.6492959 1.34187818 0 0 Z " fill="#1C93A1" transform="translate(350,128)"/>
<path d="M0 0 C2.31 0 4.62 0 7 0 C7 4.62 7 9.24 7 14 C7.66 14 8.32 14 9 14 C9.25652344 13.43796875 9.51304687 12.8759375 9.77734375 12.296875 C12.11905653 7.89774684 15.11849409 4.13278903 19 1 C22.15229045 0.27404749 24.83471708 0.40650945 28 1 C26.53417985 4.42280517 24.61937745 6.56480483 21.9375 9.125 C19.08428067 11.77905 19.08428067 11.77905 17 15 C17.66 15 18.32 15 19 15 C20.11328125 16.45288086 20.11328125 16.45288086 21.3125 18.46484375 C21.74820312 19.18220703 22.18390625 19.89957031 22.6328125 20.63867188 C23.08398438 21.39728516 23.53515625 22.15589844 24 22.9375 C24.89129252 24.42850506 25.78692458 25.91692719 26.6875 27.40234375 C27.08324219 28.06741943 27.47898437 28.73249512 27.88671875 29.41772461 C28.92604638 31.16059143 28.92604638 31.16059143 31 32 C31.0825 31.21625 31.165 30.4325 31.25 29.625 C32.24777771 24.80240771 34.11162305 20.53563436 36 16 C37.09081296 13.29464621 38.17013169 10.58473761 39.25 7.875 C39.7758525 6.55982018 40.30187905 5.24470994 40.828125 3.9296875 C41.21484375 2.96289062 41.6015625 1.99609375 42 1 C44.97 1 47.94 1 51 1 C51.36351562 1.98097656 51.72703125 2.96195312 52.1015625 3.97265625 C55.01275203 11.79635609 57.9837094 19.5846711 61.17041016 27.30102539 C63 31.78664959 63 31.78664959 63 34 C59.6875 34.3125 59.6875 34.3125 56 34 C53.61835808 31.15739513 53 29.71594733 53 26 C46.565 26.495 46.565 26.495 40 27 C39.01 29.31 38.02 31.62 37 34 C31.72 34 26.44 34 21 34 C17.04 27.07 17.04 27.07 13 20 C9.31622777 21.57836298 9.31622777 21.57836298 8 23 C7.76636119 24.84891946 7.58696365 26.70488031 7.4375 28.5625 C7.35371094 29.57441406 7.26992187 30.58632813 7.18359375 31.62890625 C7.09271484 32.80259766 7.09271484 32.80259766 7 34 C4.69 34 2.38 34 0 34 C0 22.78 0 11.56 0 0 Z " fill="#E9F4F6" transform="translate(245,495)"/>
<path d="M0 0 C4.90498706 2.23736252 7.729879 5.11050861 10 10 C10.88596903 15.87885994 10.90764327 21.25912135 7.875 26.5 C5.32556562 29.9087145 2.93381389 32.21865031 -1 34 C-6.94294369 34.84345204 -11.9536028 34.48441712 -17 31 C-22.40125628 25.16080403 -22.34470303 20.09211745 -22.28125 12.3984375 C-21.90588138 7.8627334 -21.18987326 6.18987326 -18 3 C-12.34181072 -1.08099366 -6.73600704 -0.75504361 0 0 Z " fill="#EFF7F8" transform="translate(238,403)"/>
<path d="M0 0 C7.80574733 0.48785921 14.16298629 7.70203465 19.31640625 12.99609375 C21.64613778 15.76906887 22.78722804 18.60423853 24 22 C24.63137028 23.2573672 25.2781456 24.50707906 25.9375 25.75 C31.87988038 37.6575285 34.20489779 49.68164359 34 63 C27.565 63.495 27.565 63.495 21 64 C20.76216797 65.97806641 20.76216797 65.97806641 20.51953125 67.99609375 C17.04304503 95.38464756 7.95750109 123.91033003 -12 144 C-12 139.94328787 -9.92794917 137.96233835 -7.5625 134.875 C-2.16373919 127.58599541 2.08075317 119.89750306 6.11035156 111.78564453 C6.81204771 110.37724561 7.53834672 108.98110452 8.2734375 107.58984375 C12.22590297 99.63748323 13.98343434 90.59733569 16 82 C16.25136719 80.94167969 16.50273437 79.88335937 16.76171875 78.79296875 C20.00063943 62.00111756 19.66283587 43.18203562 14 27 C13.78037598 26.35498535 13.56075195 25.7099707 13.33447266 25.04541016 C10.36885011 16.4717597 6.51169757 9.21227644 1 2 C0.67 1.34 0.34 0.68 0 0 Z " fill="#349DAA" transform="translate(418,163)"/>
<path d="M0 0 C6.24939667 1.06663663 10.11650435 6.64802092 13.75 11.5 C16.01449654 14.81586993 17.48576983 18.27751751 19 22 C19.78750334 23.4813874 20.57960374 24.96033551 21.375 26.4375 C28.72213599 41.04298485 31.39110956 56.76895333 31 73 C25.39 73 19.78 73 14 73 C14.05800781 71.07800781 14.11601562 69.15601563 14.17578125 67.17578125 C14.50554547 51.42648653 13.74908457 37.16677231 9 22 C8.65453125 20.81277344 8.3090625 19.62554687 7.953125 18.40234375 C5.95413214 11.92200214 3.21843939 5.96202707 0 0 Z " fill="#0A8B9A" transform="translate(388,152)"/>
<path d="M0 0 C3.155625 -0.0825 6.31125 -0.165 9.5625 -0.25 C10.5429126 -0.28641602 11.5233252 -0.32283203 12.53344727 -0.36035156 C18.57743884 -0.43633807 22.02919648 0.53612045 27 4 C27.05447047 5.41623216 27.09300508 6.83308191 27.125 8.25 C27.14820313 9.03890625 27.17140625 9.8278125 27.1953125 10.640625 C26.97899092 13.25378972 26.37615982 14.78285363 25 17 C22.875 18.75 22.875 18.75 21 20 C21.40992188 20.47050781 21.81984375 20.94101562 22.2421875 21.42578125 C22.78101563 22.04839844 23.31984375 22.67101562 23.875 23.3125 C24.40867187 23.92738281 24.94234375 24.54226563 25.4921875 25.17578125 C29 29.41968912 29 29.41968912 29 33 C25.7890625 33.37109375 25.7890625 33.37109375 22 33 C19.5234375 30.41015625 19.5234375 30.41015625 17.375 27.0625 C15.31119011 23.7469785 15.31119011 23.7469785 13 21 C11.35 20.67 9.7 20.34 8 20 C8 24.62 8 29.24 8 34 C5.36 34 2.72 34 0 34 C0 22.78 0 11.56 0 0 Z " fill="#E5F3F4" transform="translate(316,449)"/>
<path d="M0 0 C3.361875 -0.0825 6.72375 -0.165 10.1875 -0.25 C11.23832764 -0.28641602 12.28915527 -0.32283203 13.37182617 -0.36035156 C17.6565474 -0.41129657 20.33306801 -0.3678482 24.14453125 1.734375 C26.77839107 4.95045646 26.5930936 6.88017141 26.36328125 10.87890625 C25.89070333 13.6381515 25.05142066 15.10053643 23 17 C22.01 17.66 21.02 18.32 20 19 C20.39832031 19.44730469 20.79664063 19.89460937 21.20703125 20.35546875 C29 29.24817518 29 29.24817518 29 33 C24.06349553 34.05782239 24.06349553 34.05782239 21 33 C18.68134287 30.08085889 16.86789009 27.00783481 14.96484375 23.8046875 C13.01287463 21.0183777 12.21540724 20.09105219 9 19.25 C8.01 19.1675 7.02 19.085 6 19 C6 23.62 6 28.24 6 33 C4.02 33 2.04 33 0 33 C0 22.11 0 11.22 0 0 Z " fill="#F4FAFA" transform="translate(312,496)"/>
<path d="M0 0 C7 0 7 0 9.0390625 1.87109375 C9.56242188 2.71800781 10.08578125 3.56492187 10.625 4.4375 C11.19605469 5.34113281 11.76710937 6.24476563 12.35546875 7.17578125 C14.63420415 11.08914394 16.87195005 15.00184554 19 19 C19.33 12.73 19.66 6.46 20 0 C22.31 0 24.62 0 27 0 C27 11.22 27 22.44 27 34 C20 34 20 34 18.19555664 32.37939453 C17.55928345 31.26733643 17.55928345 31.26733643 16.91015625 30.1328125 C16.43642578 29.32972656 15.96269531 28.52664063 15.47460938 27.69921875 C15.00861328 26.84972656 14.54261719 26.00023437 14.0625 25.125 C13.56943359 24.28324219 13.07636719 23.44148438 12.56835938 22.57421875 C9 16.38774272 9 16.38774272 9 14 C8.34 14 7.68 14 7 14 C7 20.6 7 27.2 7 34 C4.69 34 2.38 34 0 34 C0 22.78 0 11.56 0 0 Z " fill="#E0F0F2" transform="translate(186,449)"/>
<path d="M0 0 C7 0 7 0 9.0390625 1.87109375 C9.56242187 2.71800781 10.08578125 3.56492187 10.625 4.4375 C11.19605469 5.34113281 11.76710938 6.24476563 12.35546875 7.17578125 C14.63420415 11.08914394 16.87195005 15.00184554 19 19 C19.33 12.73 19.66 6.46 20 0 C22.31 0 24.62 0 27 0 C27 10.89 27 21.78 27 33 C20 33 20 33 18.1796875 31.3125 C17.74914062 30.549375 17.31859375 29.78625 16.875 29 C16.39546875 28.18402344 15.9159375 27.36804688 15.421875 26.52734375 C14.71804688 25.27630859 14.71804688 25.27630859 14 24 C13.04679862 22.51752102 12.0888596 21.03807158 11.125 19.5625 C9 16.25471698 9 16.25471698 9 14 C8.34 14 7.68 14 7 14 C7 20.27 7 26.54 7 33 C4.69 33 2.38 33 0 33 C0 22.11 0 11.22 0 0 Z " fill="#E5F3F4" transform="translate(385,403)"/>
<path d="M0 0 C3.01125 -0.0825 6.0225 -0.165 9.125 -0.25 C10.06230957 -0.28641602 10.99961914 -0.32283203 11.96533203 -0.36035156 C17.45093101 -0.43279185 20.72828748 0.20595502 25 4 C26.28317892 7.84953676 26.06643637 10.94738135 26 15 C25.34 15 24.68 15 24 15 C23.7525 15.61875 23.505 16.2375 23.25 16.875 C21.72327832 19.47042686 20.78885241 19.93030318 18 21 C14.31289747 21.25747923 10.70183128 21.08813884 7 21 C7 24.96 7 28.92 7 33 C4.69 33 2.38 33 0 33 C0 22.11 0 11.22 0 0 Z " fill="#EAF5F6" transform="translate(186,403)"/>
<path d="M0 0 C3.35435922 1.38801071 5.11290303 2.88629 7 6 C7 6.99 7 7.98 7 9 C7.86955036 10.77388273 8.79540916 12.52039481 9.75 14.25 C13.34986918 21.27186247 15.17673444 28.35849146 17 36 C17.30035156 36.97839844 17.60070312 37.95679688 17.91015625 38.96484375 C21.49239246 51.37770877 21.52129664 66.39351679 19 79 C24.61 79 30.22 79 36 79 C34.42556578 61.28761499 32.26632001 46.0408344 23.70703125 30.29296875 C22.38569014 27.7440201 21.47138936 25.79315786 21 23 C24.91985253 26.39487228 26.85466414 30.13240013 29 34.75 C29.34812744 35.49427246 29.69625488 36.23854492 30.05493164 37.00537109 C36.11777535 50.46542356 38.16503633 64.31176689 38 79 C42.95 79 47.9 79 53 79 C53 72.73 53 66.46 53 60 C53.33 60 53.66 60 54 60 C54 66.6 54 73.2 54 80 C48.39 80 42.78 80 37 80 C37.0825 81.299375 37.165 82.59875 37.25 83.9375 C37.29558567 91.83521767 34.97239123 99.4098159 33 107 C31.96014445 103.78523532 32.08960347 101.70281297 32.875 98.4375 C33.92155247 93.71045427 34.41802908 89.07566384 34.75390625 84.25 C35 82 35 82 36 80 C28.08 80.495 28.08 80.495 20 81 C19.72027344 82.3303125 19.44054687 83.660625 19.15234375 85.03125 C15.732287 100.66371696 10.8027445 115.45521977 2 129 C1.34 129.33 0.68 129.66 0 130 C1.42245523 126.26055585 3.08366244 122.67736154 4.81738281 119.07617188 C10.96206346 106.28751981 14.9514532 93.83197034 18 80 C13.05 80 8.1 80 3 80 C2.34 83.63 1.68 87.26 1 91 C0.34 91 -0.32 91 -1 91 C-1.08636719 91.60585937 -1.17273438 92.21171875 -1.26171875 92.8359375 C-2.39436947 99.59027664 -4.67452682 105.0344565 -8 111 C-8.66 111 -9.32 111 -10 111 C-8.5553691 106.49330457 -6.86236473 102.12343461 -5.0625 97.75 C-2.68720286 91.90994571 -0.68456101 86.08313696 1 80 C-4.94 80 -10.88 80 -17 80 C-17 79.67 -17 79.34 -17 79 C-10.73 79 -4.46 79 2 79 C3.74416127 64.6106695 3.92706645 49.38417456 2 35 C4.2079774 38.64269689 4.70106835 42.40663002 5.1875 46.5625 C5.31765503 47.66404419 5.31765503 47.66404419 5.45043945 48.7878418 C6.4577584 58.65251311 6.41022751 69.35908996 4 79 C10.435 78.505 10.435 78.505 17 78 C17.633305 51.45396523 15.74389031 29.31413538 2.453125 5.6796875 C1 3 1 3 0 0 Z " fill="#ADD3D7" transform="translate(383,146)"/>
<path d="M0 0 C1.010625 -0.00773437 2.02125 -0.01546875 3.0625 -0.0234375 C6.41557586 0.431368 8.28304797 1.38825847 11 3.375 C14 7.61637931 14 7.61637931 14 10.375 C11.69 10.705 9.38 11.035 7 11.375 C6.67 10.385 6.34 9.395 6 8.375 C2.78373469 6.76686734 -0.51223287 6.92007385 -4 7.375 C-6.72482126 8.51501655 -6.72482126 8.51501655 -8 11.375 C-8.75761771 16.50470328 -8.72342131 20.83772973 -6.5 25.5625 C-2.98005391 28.11446092 -0.20756828 27.9095681 4 27.375 C6.35529281 26.95768982 6.35529281 26.95768982 8 26.375 C8 24.725 8 23.075 8 21.375 C5.69 21.375 3.38 21.375 1 21.375 C1 19.725 1 18.075 1 16.375 C5.62 16.375 10.24 16.375 15 16.375 C15 20.995 15 25.615 15 30.375 C8.35795672 34.46241125 2.76503455 35.42640101 -5 34.375 C-9.69659319 32.32557752 -12.55190249 29.17323755 -15.078125 24.78515625 C-17.11286568 19.46551643 -17.31668663 13.42756328 -15.04296875 8.15625 C-11.27411291 2.50894855 -6.8560316 -0.05246963 0 0 Z " fill="#F3F9FA" transform="translate(265,448.625)"/>
<path d="M0 0 C2.05078125 0.03255208 4.1015625 0.06510417 6.15234375 0.09765625 C7.844124 4.31474283 9.53476879 8.53228213 11.22436523 12.75024414 C11.79924878 14.18493942 12.37444183 15.61951071 12.94995117 17.05395508 C13.7773457 19.11637336 14.60362441 21.17923564 15.4296875 23.2421875 C15.68701157 23.88291702 15.94433563 24.52364655 16.2094574 25.18379211 C17.25845492 27.80612098 18.25889932 30.41732296 19.15234375 33.09765625 C16.51234375 33.09765625 13.87234375 33.09765625 11.15234375 33.09765625 C9.89569397 30.19165364 9.15234375 28.30161041 9.15234375 25.09765625 C4.53234375 25.09765625 -0.08765625 25.09765625 -4.84765625 25.09765625 C-5.06421875 26.79921875 -5.06421875 26.79921875 -5.28515625 28.53515625 C-5.84765625 32.09765625 -5.84765625 32.09765625 -6.84765625 33.09765625 C-9.18063058 33.13858562 -11.5147085 33.14007348 -13.84765625 33.09765625 C-13.25685425 28.78865469 -12.20960896 25.07013914 -10.59765625 21.03515625 C-10.15421875 19.91496094 -9.71078125 18.79476562 -9.25390625 17.640625 C-8.78984375 16.47144531 -8.32578125 15.30226563 -7.84765625 14.09765625 C-6.51570453 10.59388326 -5.18862095 7.0883097 -3.86328125 3.58203125 C-2.45190729 0.12959341 -2.45190729 0.12959341 0 0 Z " fill="#ECF6F7" transform="translate(222.84765625,495.90234375)"/>
<path d="M0 0 C1.9453125 -0.29296875 1.9453125 -0.29296875 4.125 -0.1875 C5.40375 -0.125625 6.6825 -0.06375 8 0 C9.71560791 4.21487449 11.42440843 8.43241971 13.12695312 12.65258789 C13.70711873 14.08791372 14.28913894 15.52249135 14.87304688 16.95629883 C15.71192052 19.01710321 16.54409239 21.08050434 17.375 23.14453125 C17.63748535 23.78526077 17.8999707 24.4259903 18.17041016 25.08613586 C19.29601297 27.89908129 20 29.93718295 20 33 C17.69 33 15.38 33 13 33 C11.515 29.535 11.515 29.535 10 26 C5.71 25.67 1.42 25.34 -3 25 C-3.33 26.32 -3.66 27.64 -4 29 C-4.33333333 30.33333333 -4.66666667 31.66666667 -5 33 C-7.31 33 -9.62 33 -12 33 C-11.54912899 27.81498336 -10.19469255 23.61950675 -8.1796875 18.83203125 C-6.38659807 14.52742915 -4.78276927 10.1520491 -3.1484375 5.78515625 C-2 3 -2 3 0 0 Z " fill="#ECF6F7" transform="translate(379,496)"/>
<path d="M0 0 C8.25 0 16.5 0 25 0 C25 1.98 25 3.96 25 6 C19.06 6 13.12 6 7 6 C7 8.31 7 10.62 7 13 C12.28 13 17.56 13 23 13 C23 14.98 23 16.96 23 19 C17.72 19 12.44 19 7 19 C7 21.97 7 24.94 7 28 C12.94 28 18.88 28 25 28 C25 29.98 25 31.96 25 34 C16.75 34 8.5 34 0 34 C0 22.78 0 11.56 0 0 Z " fill="#E9F4F6" transform="translate(286,449)"/>
<path d="M0 0 C2.31 0 4.62 0 7 0 C7 4.62 7 9.24 7 14 C7.66 14 8.32 14 9 14 C9.25652344 13.43796875 9.51304687 12.8759375 9.77734375 12.296875 C12.11905653 7.89774684 15.11849409 4.13278903 19 1 C22.15229045 0.27404749 24.83471708 0.40650945 28 1 C26.53417985 4.42280517 24.61937745 6.56480483 21.9375 9.125 C19.08428067 11.77905 19.08428067 11.77905 17 15 C17.66 15 18.32 15 19 15 C20.6442478 17.22003132 22.14753884 19.42299868 23.625 21.75 C24.04523438 22.38421875 24.46546875 23.0184375 24.8984375 23.671875 C27.12043182 27.13472328 28 28.78907329 28 33 C24.77734375 33.40625 24.77734375 33.40625 21 33 C19.07590502 30.75161934 17.894581 29.05780823 16.5625 26.5 C16.21251953 25.87996094 15.86253906 25.25992188 15.50195312 24.62109375 C14.64430631 23.0937775 13.81888806 21.54844287 13 20 C10.3094472 21.22007944 10.3094472 21.22007944 8 23 C7.76636119 24.84891946 7.58696365 26.70488031 7.4375 28.5625 C7.35371094 29.57441406 7.26992187 30.58632813 7.18359375 31.62890625 C7.09271484 32.80259766 7.09271484 32.80259766 7 34 C4.69 34 2.38 34 0 34 C0 22.78 0 11.56 0 0 Z " fill="#EBF5F6" transform="translate(245,495)"/>
<path d="M0 0 C2.31 0 4.62 0 7 0 C7.33 4.29 7.66 8.58 8 13 C8.78246094 12.14535156 9.56492187 11.29070312 10.37109375 10.41015625 C11.39321727 9.29425993 12.41535333 8.17837511 13.4375 7.0625 C13.95376953 6.49853516 14.47003906 5.93457031 15.00195312 5.35351562 C19.90244728 0.00461024 19.90244728 0.00461024 22.06640625 -0.09765625 C23.30197266 -0.08025391 23.30197266 -0.08025391 24.5625 -0.0625 C25.38878906 -0.05347656 26.21507812 -0.04445313 27.06640625 -0.03515625 C27.70449219 -0.02355469 28.34257812 -0.01195312 29 0 C25.49102731 4.18423892 21.91939465 8.19588166 18 12 C20.10877016 16.62307305 23.07017164 20.75171981 25.8984375 24.95507812 C29 29.67287693 29 29.67287693 29 33 C26.36 33 23.72 33 21 33 C20.44570313 32.00097656 19.89140625 31.00195312 19.3203125 29.97265625 C18.58882662 28.66911089 17.85704018 27.36573416 17.125 26.0625 C16.76019531 25.40314453 16.39539063 24.74378906 16.01953125 24.06445312 C14.14582102 20.42063631 14.14582102 20.42063631 11 18 C10.34 19.32 9.68 20.64 9 22 C8.34 22 7.68 22 7 22 C7 25.63 7 29.26 7 33 C4.69 33 2.38 33 0 33 C0 22.11 0 11.22 0 0 Z " fill="#EDF6F7" transform="translate(352,403)"/>
<path d="M0 0 C2.31 0 4.62 0 7 0 C7.33 4.29 7.66 8.58 8 13 C8.76183594 12.0615625 9.52367187 11.123125 10.30859375 10.15625 C18.48809483 0.46601261 18.48809483 0.46601261 22.80078125 -0.86328125 C25.25 -0.8125 25.25 -0.8125 29 0 C25.49102731 4.18423892 21.91939465 8.19588166 18 12 C19.31957309 14.72734485 20.75856197 17.29863571 22.3828125 19.85546875 C22.82753906 20.55994141 23.27226562 21.26441406 23.73046875 21.99023438 C24.66770144 23.46696656 25.60520574 24.9435264 26.54296875 26.41992188 C26.98511719 27.12052734 27.42726563 27.82113281 27.8828125 28.54296875 C28.28902832 29.18258545 28.69524414 29.82220215 29.11376953 30.48120117 C30 32 30 32 30 33 C27.03 33 24.06 33 21 33 C20.44570313 32.00097656 19.89140625 31.00195312 19.3203125 29.97265625 C18.58882662 28.66911089 17.85704018 27.36573416 17.125 26.0625 C16.76019531 25.40314453 16.39539063 24.74378906 16.01953125 24.06445312 C14.14582102 20.42063631 14.14582102 20.42063631 11 18 C10.690625 18.639375 10.38125 19.27875 10.0625 19.9375 C9 22 9 22 8 23 C7.76712992 24.68183948 7.58735834 26.3712416 7.4375 28.0625 C7.31181641 29.44115234 7.31181641 29.44115234 7.18359375 30.84765625 C7.12300781 31.55792969 7.06242187 32.26820313 7 33 C4.69 33 2.38 33 0 33 C0 22.11 0 11.22 0 0 Z " fill="#EDF6F7" transform="translate(431,403)"/>
<path d="M0 0 C7.92 0 15.84 0 24 0 C24 1.98 24 3.96 24 6 C18.39 6 12.78 6 7 6 C7 8.31 7 10.62 7 13 C12.28 13 17.56 13 23 13 C23 14.98 23 16.96 23 19 C17.72 19 12.44 19 7 19 C7 21.64 7 24.28 7 27 C12.94 27 18.88 27 25 27 C25 28.98 25 30.96 25 33 C16.75 33 8.5 33 0 33 C0 22.11 0 11.22 0 0 Z " fill="#EAF5F6" transform="translate(322,403)"/>
<path d="M0 0 C5.12747687 0 7.5225694 1.04942768 11.25 4.625 C14.54618523 8.19271007 16.29377185 11.42420632 18 16 C18.96647842 17.69479883 19.94711966 19.38155669 20.9375 21.0625 C25.22514679 28.79309508 28 37.13457199 28 46 C23.38 46 18.76 46 14 46 C13.77957031 44.48986328 13.77957031 44.48986328 13.5546875 42.94921875 C12.28142677 34.76945333 10.57457383 26.85036101 8.125 18.9375 C7.89280762 18.16559326 7.66061523 17.39368652 7.42138672 16.59838867 C5.8745413 11.78673199 3.83427846 7.8076387 0.98388672 3.63110352 C0 2 0 2 0 0 Z " fill="#0C8C9B" transform="translate(456,179)"/>
<path d="M0 0 C7.92 0 15.84 0 24 0 C24 1.98 24 3.96 24 6 C18.39 6 12.78 6 7 6 C7 8.31 7 10.62 7 13 C12.28 13 17.56 13 23 13 C23 14.98 23 16.96 23 19 C17.39 19 11.78 19 6 19 C6 21.97 6 24.94 6 28 C11.94 28 17.88 28 24 28 C24 29.65 24 31.3 24 33 C16.08 33 8.16 33 0 33 C0 22.11 0 11.22 0 0 Z " fill="#F2F9F9" transform="translate(220,449)"/>
<path d="M0 0 C8.91 0 17.82 0 27 0 C27 1.98 27 3.96 27 6 C23.7 6 20.4 6 17 6 C17 14.91 17 23.82 17 33 C14.69 33 12.38 33 10 33 C10 24.09 10 15.18 10 6 C6.7 6 3.4 6 0 6 C0 4.02 0 2.04 0 0 Z " fill="#E8F4F5" transform="translate(291,403)"/>
<path d="M0 0 C3.15441888 1.82624251 3.82861833 2.48585498 5 6 C5.51005145 10.93328449 5.76029306 14.758188 3.125 19.0625 C0.38999766 21.5561786 -0.58151819 21.9526247 -4.3125 22.375 C-8 22 -8 22 -10.9375 20.3125 C-14.17880038 15.10677515 -14.06625923 9.95581942 -13 4 C-10.02831798 -1.33647123 -5.50741053 -1.63182534 0 0 Z " fill="#0D8C9B" transform="translate(236,409)"/>
<path d="M0 0 C2.31 0 4.62 0 7 0 C7 8.91 7 17.82 7 27 C12.28 27 17.56 27 23 27 C23 28.98 23 30.96 23 33 C15.41 33 7.82 33 0 33 C0 22.11 0 11.22 0 0 Z " fill="#E6F3F5" transform="translate(253,403)"/>
<path d="M0 0 C2.31 0 4.62 0 7 0 C7.11625936 4.56228541 7.18727408 9.12418928 7.25 13.6875 C7.30027344 15.62786133 7.30027344 15.62786133 7.3515625 17.60742188 C7.36445313 18.85458984 7.37734375 20.10175781 7.390625 21.38671875 C7.41157227 22.53358154 7.43251953 23.68044434 7.45410156 24.86206055 C6.90384899 28.66442415 5.65728809 30.28125209 3 33 C-0.74143743 34.87071872 -4.93634591 34.67621245 -9 34 C-11.6615019 32.24916652 -12.36684312 30.88524382 -14 28 C-14.3125 25.125 -14.3125 25.125 -14 23 C-12.02 23 -10.04 23 -8 23 C-7.34 24.32 -6.68 25.64 -6 27 C-4.35 27 -2.7 27 -1 27 C-0.67 18.09 -0.34 9.18 0 0 Z " fill="#E8F4F5" transform="translate(198,495)"/>
<path d="M0 0 C8.25 0 16.5 0 25 0 C25 1.65 25 3.3 25 5 C22.03 5 19.06 5 16 5 C16 14.24 16 23.48 16 33 C13.69 33 11.38 33 9 33 C9 23.76 9 14.52 9 5 C6.03 5 3.06 5 0 5 C0 3.35 0 1.7 0 0 Z " fill="#F1F8F9" transform="translate(343,496)"/>
<path d="M0 0 C2.31 0 4.62 0 7 0 C7 10.89 7 21.78 7 33 C4.69 33 2.38 33 0 33 C0 22.11 0 11.22 0 0 Z " fill="#EAF5F6" transform="translate(418,403)"/>
<path d="M0 0 C1.98 0 3.96 0 6 0 C6 10.89 6 21.78 6 33 C4.02 33 2.04 33 0 33 C0 22.11 0 11.22 0 0 Z " fill="#F8FCFC" transform="translate(281,403)"/>
<path d="M0 0 C1.98 0 3.96 0 6 0 C6 10.56 6 21.12 6 32 C4.02 32 2.04 32 0 32 C0 21.44 0 10.88 0 0 Z " fill="#F7FBFC" transform="translate(350,450)"/>
<path d="M0 0 C0 3 0 3 -3 7 C4.59 7.33 12.18 7.66 20 8 C18 12 18 12 15 14 C15.66 12.68 16.32 11.36 17 10 C-61.21 9.505 -61.21 9.505 -141 9 C-141 8.67 -141 8.34 -141 8 C-139.97101326 7.99918285 -139.97101326 7.99918285 -138.9212389 7.99834919 C-122.22892362 7.98338137 -105.53692738 7.94093483 -88.84476948 7.86790943 C-80.77254019 7.83325732 -72.70048172 7.80790364 -64.62817383 7.80444336 C-57.59226148 7.80140375 -50.55665331 7.78091403 -43.52085847 7.73947543 C-39.79541668 7.71814301 -36.07040735 7.70554577 -32.34490395 7.71384621 C-28.18564547 7.72278607 -24.02754263 7.69276699 -19.8684082 7.65942383 C-18.63338562 7.66804947 -17.39836304 7.67667511 -16.12591553 7.68556213 C-9.48669048 7.69667903 -9.48669048 7.69667903 -3.82072449 4.58378601 C-3.21988541 3.73113663 -2.61904633 2.87848724 -2 2 C-1.34 1.34 -0.68 0.68 0 0 Z " fill="#97CED3" transform="translate(286,217)"/>
<path d="M0 0 C4.10958767 1.45044271 7.43258745 3.51110752 11 6 C10.01 6.495 10.01 6.495 9 7 C6.875 6.0625 6.875 6.0625 5 5 C5.59167969 5.969375 6.18335938 6.93875 6.79296875 7.9375 C16.54251785 24.31666001 20.17606375 39.41902072 20.1875 58.4375 C20.19974609 59.50548828 20.21199219 60.57347656 20.22460938 61.67382812 C20.24001687 70.08118422 19.60235311 78.28067191 16 86 C14.4234849 81.95952751 15.58134474 78.26634427 16.4375 74.1875 C21.03118946 50.00474781 15.60110663 26.88109455 3 6 C2.42378906 5.42378906 1.84757812 4.84757812 1.25390625 4.25390625 C0.84011719 3.84011719 0.42632812 3.42632812 0 3 C0 2.01 0 1.02 0 0 Z " fill="#A1CBD0" transform="translate(286,104)"/>
<path d="M0 0 C4.51478398 0.53115106 7.34666857 2.36620292 11 5 C10.01 5.495 10.01 5.495 9 6 C8.01 5.67 7.02 5.34 6 5 C6.43570312 5.62261719 6.87140625 6.24523437 7.3203125 6.88671875 C15.50542379 19.58958627 20.25622619 35.8826547 20 51 C24.62 51 29.24 51 34 51 C34.33 50.01 34.66 49.02 35 48 C35 49.32 35 50.64 35 52 C30.05 52 25.1 52 20 52 C20 57.61 20 63.22 20 69 C19.67 69 19.34 69 19 69 C18.9906543 68.32646484 18.98130859 67.65292969 18.97167969 66.95898438 C18.73702901 53.4596688 18.26985891 40.88145988 14 28 C13.62746094 26.865625 13.25492187 25.73125 12.87109375 24.5625 C8.60181174 11.58904527 8.60181174 11.58904527 0 2 C0 1.34 0 0.68 0 0 Z " fill="#84C1C8" transform="translate(450,174)"/>
<path d="M0 0 C1.77049689 -0.05410687 3.54146849 -0.09284119 5.3125 -0.125 C6.29863281 -0.14820313 7.28476562 -0.17140625 8.30078125 -0.1953125 C11 0 11 0 14 2 C13.25 6.75 13.25 6.75 11 9 C8.3984375 9.1953125 8.3984375 9.1953125 5.375 9.125 C3.87066406 9.09792969 3.87066406 9.09792969 2.3359375 9.0703125 C1.56507813 9.04710937 0.79421875 9.02390625 0 9 C0 6.03 0 3.06 0 0 Z " fill="#1F94A2" transform="translate(318,501)"/>
<path d="M0 0 C1.79158489 -0.02696365 3.58328473 -0.04637917 5.375 -0.0625 C6.37273437 -0.07410156 7.37046875 -0.08570313 8.3984375 -0.09765625 C11 0 11 0 13 1 C13.04254356 2.99954746 13.04080783 5.00041636 13 7 C12 8 12 8 9.27734375 8.09765625 C7.62412109 8.08025391 7.62412109 8.08025391 5.9375 8.0625 C4.83277344 8.05347656 3.72804688 8.04445313 2.58984375 8.03515625 C1.30787109 8.01775391 1.30787109 8.01775391 0 8 C0 5.36 0 2.72 0 0 Z " fill="#0D8C9B" transform="translate(323,455)"/>
<path d="M0 0 C8.625 -0.25 8.625 -0.25 12 2 C12.375 4.5 12.375 4.5 12 7 C7.7975546 9.80163026 4.99895065 9.14489712 0 9 C0 6.03 0 3.06 0 0 Z " fill="#118E9D" transform="translate(193,409)"/>
<path d="M0 0 C0.66 0.33 1.32 0.66 2 1 C0.90033225 2.29549899 -0.20491801 3.58626071 -1.3125 4.875 C-1.92738281 5.59429687 -2.54226562 6.31359375 -3.17578125 7.0546875 C-5 9 -5 9 -8 11 C-12.31842763 18.12035058 -13.04755466 25.86365315 -12 34 C-11.1805075 36.52829973 -10.22556096 38.75800265 -8.97265625 41.09765625 C-7.97322617 43.05236488 -7.4530253 44.85885937 -7 47 C-11.00400034 43.68634455 -12.95072028 40.01993535 -14 35 C-14.93934469 24.84828691 -14.47944489 16.03707004 -8.28125 7.68359375 C-5.68894814 4.61347354 -3.35688201 2.23792134 0 0 Z " fill="#DEB5B9" transform="translate(198,147)"/>
<path d="M0 0 C0.66 0.33 1.32 0.66 2 1 C2.26516747 11.44465206 1.84077173 21.76777374 1.0625 32.1875 C0.97564941 33.35708252 0.88879883 34.52666504 0.79931641 35.73168945 C0.39643355 40.87719616 -0.09835474 45.91426777 -1 51 C-1.66 51 -2.32 51 -3 51 C-3.33 52.32 -3.66 53.64 -4 55 C-3.5090423 48.64754875 -2.94406507 42.30984419 -2.24609375 35.9765625 C-2.11396484 34.77 -1.98183594 33.5634375 -1.84570312 32.3203125 C-1.57437272 29.86405833 -1.29835805 27.40831692 -1.01757812 24.953125 C-0.11130817 16.57794059 0.16698382 8.42017934 0 0 Z " fill="#BAD6D9" transform="translate(605,247)"/>
<path d="M0 0 C0.33 0 0.66 0 1 0 C0.85879286 1.93784265 0.71187127 3.87526955 0.5625 5.8125 C0.48128906 6.89144531 0.40007812 7.97039062 0.31640625 9.08203125 C0 12 0 12 -1 15 C-1.66 15 -2.32 15 -3 15 C-3.08636719 15.60585937 -3.17273438 16.21171875 -3.26171875 16.8359375 C-4.39436947 23.59027664 -6.67452682 29.0344565 -10 35 C-10.66 35 -11.32 35 -12 35 C-10.5553691 30.49330457 -8.86236473 26.12343461 -7.0625 21.75 C-4.68720286 15.90994571 -2.68456101 10.08313696 -1 4 C-6.94 4 -12.88 4 -19 4 C-19 3.67 -19 3.34 -19 3 C-12.73 3 -6.46 3 0 3 C0 2.01 0 1.02 0 0 Z " fill="#7EBFC6" transform="translate(385,222)"/>
<path d="M0 0 C1.69196504 3.38393008 1.11986549 7.22477791 1.09765625 10.9453125 C1.0962413 11.8303244 1.09482635 12.7153363 1.09336853 13.62716675 C1.0877614 16.45981191 1.07520771 19.29237864 1.0625 22.125 C1.05748592 24.04296761 1.05292285 25.96093646 1.04882812 27.87890625 C1.03778966 32.58596782 1.02052025 37.2929706 1 42 C0.67 42 0.34 42 0 42 C-0.50332423 36.6631653 -0.98492205 31.32497971 -1.4465332 25.984375 C-1.60659375 24.16808516 -1.77256763 22.3523063 -1.94458008 20.53710938 C-2.19089341 17.92690204 -2.41584137 15.31559231 -2.63671875 12.703125 C-2.71782394 11.89256653 -2.79892914 11.08200806 -2.88249207 10.24688721 C-3.15912885 6.75737742 -3.30969376 4.53330177 -1.52270508 1.45605469 C-1.0202124 0.97555664 -0.51771973 0.49505859 0 0 Z " fill="#96C6CB" transform="translate(30,242)"/>
<path d="M0 0 C3.48539917 0.64544429 6.02819057 2.10134397 9 4 C8.01 4.33 7.02 4.66 6 5 C6.55429687 6.07378906 7.10859375 7.14757812 7.6796875 8.25390625 C8.41178258 9.68993891 9.14353523 11.12614618 9.875 12.5625 C10.42220703 13.61920898 10.42220703 13.61920898 10.98046875 14.69726562 C16.40135461 25.39119501 16.40135461 25.39119501 15.625 30.4375 C15.41875 30.953125 15.2125 31.46875 15 32 C14.64808594 30.98421875 14.29617188 29.9684375 13.93359375 28.921875 C11.09279859 20.92945954 7.99801604 13.68148533 3.515625 6.453125 C2.21150151 4.34232719 1.06652685 2.23761516 0 0 Z " fill="#95C8CE" transform="translate(316,118)"/>
<path d="M0 0 C0.66 0 1.32 0 2 0 C5.42857143 7.28571429 5.42857143 7.28571429 5 12 C2.36 12 -0.28 12 -3 12 C-2.49202991 7.6822542 -1.80317221 3.96697886 0 0 Z " fill="#66B5BF" transform="translate(224,504)"/>
<path d="M0 0 C2.34191563 2.1290142 3.83554954 4.04408729 5 7 C5 8.32 5 9.64 5 11 C2.03 11 -0.94 11 -4 11 C-3.52269162 9.5410574 -3.04308958 8.08286504 -2.5625 6.625 C-2.29566406 5.81289063 -2.02882813 5.00078125 -1.75390625 4.1640625 C-1 2 -1 2 0 0 Z " fill="#2D9AA7" transform="translate(382,505)"/>
<path d="M0 0 C5 7.5 5 7.5 5 11 C2.03 11 -0.94 11 -4 11 C-3.48964169 6.6109185 -2.47785723 3.66291938 0 0 Z " fill="#2E9AA8" transform="translate(291,505)"/>
<path d="M0 0 C0.66 0.33 1.32 0.66 2 1 C1.50628906 1.47050781 1.01257813 1.94101562 0.50390625 2.42578125 C-0.13675781 3.04839844 -0.77742188 3.67101562 -1.4375 4.3125 C-2.07558594 4.92738281 -2.71367187 5.54226563 -3.37109375 6.17578125 C-6.39809865 9.56573637 -6.10914993 12.84905623 -6.0625 17.1875 C-6.05347656 18.27417969 -6.04445312 19.36085938 -6.03515625 20.48046875 C-6.02355469 21.31191406 -6.01195312 22.14335937 -6 23 C-8.63827703 20.36172297 -8.35901928 18.99186086 -8.4375 15.3125 C-8.34922276 9.18458806 -7.15316172 6.44291719 -3 2 C-2.01 1.34 -1.02 0.68 0 0 Z " fill="#B6DCE1" transform="translate(257,450)"/>
<path d="M0 0 C4.31730413 0.47409648 6.33647461 3.03396703 9.25 6.0625 C10.14203125 6.98160156 11.0340625 7.90070313 11.953125 8.84765625 C12.62859375 9.55792969 13.3040625 10.26820313 14 11 C13.67 11.66 13.34 12.32 13 13 C10.69 10.69 8.38 8.38 6 6 C5.01 6.495 5.01 6.495 4 7 C0 2.25 0 2.25 0 0 Z " fill="#C0DDE1" transform="translate(350,128)"/>
<path d="M0 0 C0.66 0.33 1.32 0.66 2 1 C1.57847656 1.39832031 1.15695313 1.79664063 0.72265625 2.20703125 C0.17480469 2.73683594 -0.37304688 3.26664062 -0.9375 3.8125 C-1.48277344 4.33457031 -2.02804688 4.85664063 -2.58984375 5.39453125 C-5.35529999 8.54301467 -5.26066372 12.17738942 -5.5625 16.1875 C-5.64628906 17.27417969 -5.73007813 18.36085938 -5.81640625 19.48046875 C-5.87699219 20.31191406 -5.93757812 21.14335937 -6 22 C-6.33 22 -6.66 22 -7 22 C-7.68868203 8.03505874 -7.68868203 8.03505874 -5.1875 4.25 C-3 2 -3 2 0 0 Z " fill="#C7E4E8" transform="translate(223,404)"/>
<path d="M0 0 C0.33 0 0.66 0 1 0 C1.19392201 5.52677733 0.7479503 9.75614911 -1 15 C-1.66 15 -2.32 15 -3 15 C-3.33 15.99 -3.66 16.98 -4 18 C-3.31195504 11.80759538 -1.71951285 5.98044406 0 0 Z " fill="#91C5CB" transform="translate(586,370)"/>
<path d="M0 0 C5.44208234 0.34013015 8.93668198 3.70296528 13 7 C9.89448334 7 8.64738916 6.4606285 6 5 C5.67 5.66 5.34 6.32 5 7 C3.35 4.69 1.7 2.38 0 0 Z " fill="#A9D2D7" transform="translate(418,163)"/>
<path d="M0 0 C0.66 0.33 1.32 0.66 2 1 C2.625 4.0625 2.625 4.0625 3 7 C0.69 7 -1.62 7 -4 7 C-1.125 1.125 -1.125 1.125 0 0 Z " fill="#048596" transform="translate(225,508)"/>
<path d="M0 0 C0.66 0.33 1.32 0.66 2 1 C0.87895467 2.31587941 -0.24696965 3.62760353 -1.375 4.9375 C-2.00148437 5.66839844 -2.62796875 6.39929688 -3.2734375 7.15234375 C-5 9 -5 9 -7 10 C-6.84518205 7.29068581 -6.51827919 5.53415961 -4.59765625 3.5546875 C-3.10228292 2.32320358 -1.5537076 1.1570163 0 0 Z " fill="#D5747E" transform="translate(198,147)"/>
<path d="M0 0 C4.10958767 1.45044271 7.43258745 3.51110752 11 6 C9 7 9 7 5.5 6.1875 C2 5 2 5 0 3 C0 2.01 0 1.02 0 0 Z " fill="#9CCED4" transform="translate(286,104)"/>
<path d="M0 0 C1.32 0.66 2.64 1.32 4 2 C3.67 2.66 3.34 3.32 3 4 C2.01 4 1.02 4 0 4 C-2.39763185 6.39763185 -2.34280586 7.33273498 -2.625 10.625 C-2.69976562 11.44226563 -2.77453125 12.25953125 -2.8515625 13.1015625 C-2.92503906 14.04128906 -2.92503906 14.04128906 -3 15 C-3.33 15 -3.66 15 -4 15 C-4.63019694 4.84682713 -4.63019694 4.84682713 -2 1.3125 C-1.34 0.879375 -0.68 0.44625 0 0 Z " fill="#399FAC" transform="translate(256,514)"/>
<path d="M0 0 C0.33 0 0.66 0 1 0 C1.08333357 4.8333472 0.95261487 9.23692563 0 14 C-0.66 14 -1.32 14 -2 14 C-2.33 15.32 -2.66 16.64 -3 18 C-2.67 14.04 -2.34 10.08 -2 6 C-1.34 6 -0.68 6 0 6 C0 4.02 0 2.04 0 0 Z " fill="#7EBFC6" transform="translate(604,284)"/>
<path d="M0 0 C4.29 0 8.58 0 13 0 C13 0.33 13 0.66 13 1 C11.96939453 1.05607422 11.96939453 1.05607422 10.91796875 1.11328125 C10.01691406 1.17902344 9.11585938 1.24476563 8.1875 1.3125 C7.29417969 1.37050781 6.40085937 1.42851563 5.48046875 1.48828125 C1.38805395 2.3325432 0.25632577 4.61551134 -2 8 C-1.47731534 5.23723823 -0.89130413 2.6739124 0 0 Z " fill="#3CA1AE" transform="translate(376,521)"/>
<path d="M0 0 C0.99 0.33 1.98 0.66 3 1 C0.36 3.64 -2.28 6.28 -5 9 C-5.66 8.67 -6.32 8.34 -7 8 C-4.69 5.36 -2.38 2.72 0 0 Z " fill="#D8ECEF" transform="translate(264,496)"/>
<path d="M0 0 C4.75 0.75 4.75 0.75 7 3 C6.01 3.495 6.01 3.495 5 4 C4.67 4.66 4.34 5.32 4 6 C2.62437146 4.71034824 1.29233607 3.37310707 0 2 C0 1.34 0 0.68 0 0 Z " fill="#B5D9DD" transform="translate(450,174)"/>
<path d="M0 0 C2.86724686 0.57344937 3.8614515 0.8614515 6 3 C5.34 3 4.68 3 4 3 C4.33 4.32 4.66 5.64 5 7 C3.29115995 5.37660195 1.62553283 3.70680947 0 2 C0 1.34 0 0.68 0 0 Z " fill="#B0D5DA" transform="translate(316,118)"/>
</svg>
